<?xml version="1.0" encoding="utf-8"?>
<!-- Generator: Adobe Illustrator 19.2.1, SVG Export Plug-In . SVG Version: 6.00 Build 0)  -->
<svg version="1.1" xmlns="http://www.w3.org/2000/svg" xmlns:xlink="http://www.w3.org/1999/xlink" x="0px" y="0px"
	 viewBox="0 0 1000 1000" style="enable-background:new 0 0 1000 1000;" xml:space="preserve">
<style type="text/css">
	.st0{display:none;}
	.st1{display:inline;fill:#1E1F21;}
	.st2{fill:#1F252F;}
	.st3{fill:#F2F2F2;}
	.st4{fill:#1E1F21;}
	.st5{fill:#00B4D8;}
	.st6{display:none;fill:#00B4D8;}
</style>
<g id="BG" class="st0">
	<rect class="st1" width="1000" height="1000"/>
</g>
<g id="Monogramme">
	<g>
		<g>
			<g>
				<path class="st2" d="M1211,1521.7c-0.3-0.3-0.5-0.6-0.8-1C1210.6,1521.2,1210.8,1521.5,1211,1521.7z"/>
			</g>
			<g>
				<path class="st2" d="M1223.1,1538.6c-0.5-0.9-1.1-1.8-1.8-2.8C1222,1536.8,1222.6,1537.7,1223.1,1538.6z"/>
			</g>
			<g>
				<path class="st2" d="M1230.5,1509.2c-0.5-0.4-8.5-6.5-12.1-9.1C1222.2,1502.7,1226.3,1505.7,1230.5,1509.2z"/>
			</g>
			<g>
				<path class="st2" d="M1210.1,1520.6c-0.4-0.5-0.9-1.1-1.5-1.7c0,0,0,0,0,0C1209.1,1519.4,1209.6,1520,1210.1,1520.6z"/>
			</g>
			<g>
				<path class="st2" d="M1227.8,1547.3c-2.2-3.6-4.3-7.8-4.6-8.5C1226.2,1543.7,1227.7,1547,1227.8,1547.3z"/>
			</g>
			<g>
				<path class="st2" d="M1241.3,1499.2c-12.1-8.9-24-14.4-31-17.2V1404c0-9.8,9.1-17.8,19-15.5c7.1,1.7,12.1,8.4,12.1,15.9V1499.2z
					"/>
			</g>
			<g>
				<path class="st2" d="M1407.9,1471.4v20.1c0,46-37.3,83.3-83.3,83.3h-46.8c-1.6-0.1-3.4-0.3-5.3-0.5
					c-13.5-1.8-32.9-7.8-44.7-26.9c0,0,0,0,0,0v0c0-0.1-0.1-0.3-0.3-0.6c-0.1-0.1-0.1-0.3-0.2-0.4c-0.4-0.9-1.1-2.3-2.2-4.1
					c-0.1-0.2-0.3-0.5-0.4-0.8c0,0,0,0,0-0.1c-0.4-0.8-0.9-1.6-1.5-2.5c0,0,0,0,0-0.1c0,0,0,0,0-0.1c0,0,0-0.1,0-0.1
					c0,0,0-0.1-0.1-0.1c-0.5-0.8-1.1-1.8-1.8-2.8c-0.1-0.2-0.3-0.4-0.4-0.7c-3.5-5.1-8.4-11.5-9.5-12.9c0,0-0.1-0.1-0.1-0.1
					c0,0,0,0,0,0c0,0,0-0.1-0.1-0.1c0-0.1-0.1-0.1-0.2-0.2c0-0.1-0.1-0.1-0.2-0.2c-0.1-0.1-0.3-0.3-0.4-0.5
					c-0.1-0.1-0.2-0.2-0.2-0.3c0,0-0.1-0.1-0.2-0.2c-0.5-0.6-1-1.1-1.5-1.7c-10.6-12.1-26-25.4-46.8-33.9c0,0,19.1-10.2,55.6,14.4
					c0.2,0.1,0.4,0.3,0.6,0.4c0.1,0.1,0.2,0.2,0.3,0.2c0.1,0.1,0.2,0.2,0.4,0.2c0.2,0.2,0.5,0.4,0.8,0.6c0.2,0.2,0.5,0.3,0.7,0.5
					c0.5,0.4,1.1,0.8,1.7,1.3c0.2,0.1,0.3,0.2,0.4,0.3c0.3,0.2,0.6,0.4,0.9,0.7c0.2,0.2,0.5,0.4,0.8,0.6c1.9,1.4,3.7,2.8,4.9,3.7
					c0.4,0.3,0.7,0.5,0.9,0.7c0,0,0,0,0.1,0c0.1,0.1,0.2,0.2,0.3,0.2c0,0,0.1,0,0.1,0.1c0,0,0,0,0,0c0,0,0.1,0.1,0.1,0.1
					c0,0,0,0,0,0c3.4,2.7,6.8,5.8,10.4,9.1c0,0,25.7,25.4,44.6,25.4h39c28.8,0,52.3-23.4,52.3-52.3v-20.1
					c0-28.8-23.4-52.2-52.3-52.2h-48.4c-9.6,0-17.4-9.1-15.1-19c1.6-7.2,8.2-12.1,15.6-12.1h47.9
					C1370.6,1388.1,1407.9,1425.4,1407.9,1471.4z"/>
			</g>
			<g>
				<path class="st2" d="M1202.5,1529.3c8.2,10.4,14.2,21,17.2,26.9c-12.5,11.5-29.1,18.6-47.4,18.6h-27.2
					c-7.3,0-13.9-4.9-15.6-12.1c-2.3-9.9,5.5-19,15.1-19h27.7C1184.5,1543.7,1195.4,1538.1,1202.5,1529.3z"/>
			</g>
		</g>
		<g>
			<path class="st2" d="M1520.1,1388.8h19.2l-10.6,64.3c-1,5.9-3.1,11.1-6.4,15.4c-3.3,4.3-7.5,7.7-12.5,10c-5,2.3-10.7,3.5-17,3.5
				c-5.6,0-10.5-1-14.7-3c-4.2-2-7.3-5-9.3-9c-2-4-2.5-9.1-1.5-15.2h19.2c-0.5,3.7,0.1,6.6,1.8,8.6c1.6,2,4.1,3,7.5,3
				c3.7,0,6.7-1.2,9.1-3.5c2.4-2.4,4-5.7,4.7-10.1L1520.1,1388.8z"/>
			<path class="st2" d="M1574.8,1388.8l-15.3,92h-19.4l15.3-92H1574.8z"/>
			<path class="st2" d="M1590.8,1388.8h24l15.1,61.8h1.1l35.5-61.8h24l-15.3,92h-18.9l10-59.9h-0.8l-33.6,59.4h-12.9l-13.8-59.6
				h-0.8l-10.1,60.1h-18.9L1590.8,1388.8z"/>
			<path class="st2" d="M1706.5,1388.8h24l15.1,61.8h1.1l35.5-61.8h24l-15.3,92h-18.9l10-59.9h-0.8l-33.6,59.4h-12.9l-13.8-59.6
				h-0.8l-10.1,60.1h-18.9L1706.5,1388.8z"/>
			<path class="st2" d="M1816.8,1388.8h21.8l14.4,39.6h1l27.4-39.6h21.8l-43.4,59.5l-5.4,32.5h-19.3l5.4-32.5L1816.8,1388.8z"/>
		</g>
		<g>
			<g>
				<path class="st2" d="M1471.5,1573.5h-23.7l12-72.3h23.8c7.1,0,13,1.5,17.6,4.4c4.6,3,7.9,7.2,9.7,12.6c1.9,5.5,2.2,12,0.9,19.6
					c-1.2,7.4-3.6,13.8-7.2,19.1c-3.6,5.3-8.2,9.4-13.8,12.3C1485.3,1572.1,1478.8,1573.5,1471.5,1573.5z M1460.2,1564h11.7
					c8.3,0,14.9-2.4,19.8-7.2c4.9-4.8,8.1-11.5,9.6-20.3c1.4-8.4,0.5-14.8-2.7-19.2c-3.2-4.4-8.8-6.7-16.7-6.7h-12.9L1460.2,1564z"
					/>
			</g>
			<g>
				<path class="st2" d="M1519.5,1573.5l12-72.3h45.3l-1.6,9.4h-34.4l-3.7,22h32.1l-1.6,9.4h-32.1l-3.7,22.1h34.9l-1.6,9.4H1519.5z"
					/>
			</g>
			<g>
				<path class="st2" d="M1627.7,1520.6c0-3.6-1.1-6.3-3.4-8.2c-2.3-1.9-5.6-2.8-9.7-2.8c-4.5,0-8.1,1-11.1,3
					c-2.9,2-4.7,4.6-5.2,7.7c-0.4,2.3,0,4.2,1.1,5.6c1.2,1.4,2.7,2.6,4.6,3.4c1.9,0.8,3.8,1.5,5.5,2l6.8,1.8
					c2.2,0.6,4.4,1.3,6.7,2.3c2.3,1,4.3,2.2,6.1,3.8c1.8,1.6,3.2,3.5,4.1,5.8c0.9,2.3,1.1,5.1,0.5,8.4c-0.7,4.1-2.3,7.7-5,10.9
					c-2.6,3.2-6.1,5.7-10.3,7.5c-4.3,1.8-9.2,2.7-14.9,2.7c-8.1,0-14.2-1.9-18.4-5.7c-4.2-3.8-5.9-9-5.2-15.5h11
					c-0.4,3.9,0.8,6.9,3.6,8.8c2.8,1.9,6.3,2.9,10.5,2.9c4.6,0,8.6-1.1,12-3.2s5.3-5,5.9-8.5c0.4-2.1,0.1-3.9-0.9-5.3
					c-1-1.4-2.4-2.5-4.4-3.4c-1.9-0.9-4.1-1.7-6.6-2.4l-8.2-2.3c-5.5-1.6-9.7-3.9-12.6-7c-2.8-3-3.9-7.1-3.1-12.1
					c0.7-4.2,2.5-7.8,5.2-10.9c2.8-3.1,6.2-5.5,10.4-7.3c4.2-1.7,8.6-2.6,13.5-2.6c4.9,0,9.1,0.9,12.5,2.6c3.4,1.7,6,4.1,7.6,7.2
					c1.6,3.1,2.2,6.6,1.7,10.6H1627.7z"/>
			</g>
			<g>
				<path class="st2" d="M1666.4,1501.2l-12,72.3h-10.9l12-72.3H1666.4z"/>
			</g>
			<g>
				<path class="st2" d="M1727.3,1524.1c-0.6-4.3-2.2-7.7-4.7-10.2c-2.5-2.5-6.2-3.7-11-3.7c-4.1,0-8,1-11.7,3.1
					c-3.7,2.1-6.9,5.2-9.6,9.2c-2.7,4-4.5,9-5.5,14.8c-1.5,8.8-0.6,15.5,2.6,20.2c3.2,4.7,7.9,7,14.3,7c3.9,0,7.4-0.8,10.7-2.3
					c3.3-1.6,6-3.8,8.2-6.6s3.7-6.2,4.3-10.1h-17.9l1.6-9h28.5l-1.4,8.2c-1,6.1-3.1,11.4-6.4,15.8s-7.4,7.9-12.4,10.3
					c-4.9,2.4-10.3,3.6-16.2,3.6c-6.5,0-12-1.5-16.4-4.5c-4.4-3-7.6-7.3-9.4-12.8c-1.8-5.6-2.1-12.1-0.8-19.8
					c1.2-7.7,3.7-14.3,7.4-19.9c3.7-5.6,8.3-9.8,13.6-12.8c5.4-3,11.2-4.5,17.4-4.5c5.2,0,9.8,1,13.7,3c3.9,2,7,4.8,9.1,8.4
					c2.2,3.6,3.3,7.7,3.3,12.4H1727.3z"/>
			</g>
			<g>
				<path class="st2" d="M1815.1,1501.2l-12,72.3h-10l-27.9-53h-0.6l-8.9,53h-10.9l12-72.3h10.1l28,53.1h0.7l8.8-53.1H1815.1z"/>
			</g>
			<g>
				<path class="st2" d="M1867.2,1520.6c0-3.6-1.1-6.3-3.4-8.2c-2.3-1.9-5.6-2.8-9.7-2.8c-4.4,0-8.1,1-11.1,3
					c-2.9,2-4.7,4.6-5.2,7.7c-0.4,2.3,0,4.2,1.1,5.6c1.2,1.4,2.7,2.6,4.6,3.4c1.9,0.8,3.8,1.5,5.5,2l6.8,1.8
					c2.2,0.6,4.4,1.3,6.7,2.3c2.3,1,4.3,2.2,6.1,3.8c1.8,1.6,3.2,3.5,4.1,5.8c0.9,2.3,1.1,5.1,0.5,8.4c-0.7,4.1-2.3,7.7-5,10.9
					c-2.6,3.2-6.1,5.7-10.3,7.5c-4.3,1.8-9.2,2.7-14.9,2.7c-8.1,0-14.2-1.9-18.4-5.7c-4.2-3.8-5.9-9-5.2-15.5h11
					c-0.4,3.9,0.8,6.9,3.6,8.8c2.8,1.9,6.3,2.9,10.5,2.9c4.6,0,8.6-1.1,12-3.2c3.4-2.2,5.4-5,5.9-8.5c0.4-2.1,0.1-3.9-0.9-5.3
					c-1-1.4-2.4-2.5-4.4-3.4s-4.1-1.7-6.6-2.4l-8.2-2.3c-5.5-1.6-9.7-3.9-12.6-7c-2.8-3-3.9-7.1-3.1-12.1c0.7-4.2,2.5-7.8,5.2-10.9
					c2.8-3.1,6.2-5.5,10.4-7.3c4.2-1.7,8.6-2.6,13.5-2.6c4.9,0,9.1,0.9,12.5,2.6c3.4,1.7,6,4.1,7.6,7.2c1.6,3.1,2.2,6.6,1.7,10.6
					H1867.2z"/>
			</g>
		</g>
	</g>
	<rect x="91.8" y="-76.6" class="st3" width="63.6" height="63.6"/>
	<rect x="3" y="-76.6" class="st4" width="63.6" height="63.6"/>
	<rect x="180.6" y="-76.6" class="st5" width="63.6" height="63.6"/>
	<path class="st6" d="M851,745v-1c0-96.5-38.4-183.9-101.3-247.3c-35.3-35.7-77.9-63.8-125.7-81.8c-38.5-14.5-80.1-22.4-123.7-22.4
		c-7.5,0-15,0.2-22.4,0.7c-48.6,156.5-172,280.5-328.4,329.2C108,735.3,64.2,742,18.9,745H0.7c0-53,7.9-102.2,22.5-149.1
		c176.3-11.1,317.3-152.3,328.3-328.7c47-14.7,97-22.7,148.8-22.7c91,0,176.3,24.3,249.8,66.8c47.5,27.5,90,63,126,104
		C953.3,503.3,1000,618,1000,745H851z"/>
	<g>
		<path class="st5" d="M221,552v-0.2c0-25.1-9.6-47.9-26-64.5c-9.2-9.3-20.1-16.6-32.6-21.3c-10-3.8-20.8-5.9-32.2-5.9
			c-2,0-3.9,0.1-5.8,0.2c-12.7,40.8-44.8,73.1-85.6,85.8c-10.8,3.4-22.2,4.8-34,5.8H0c0-14,2.1-26.6,5.9-38.8
			c46-2.9,82.7-39.7,85.6-85.7c12.3-3.8,25.3-5.9,38.8-5.9c23.7,0,46,6.3,65.1,17.4c12.4,7.2,23.5,16.4,32.8,27.1
			c20.1,22.9,32.3,52.9,32.3,85.9H221z"/>
		<g>
			<path class="st4" d="M350.9,543.8c-6.7,5.9-15.7,8.8-26.7,8.8c-7.4,0-13.3-1.1-17.6-3.3c-4.3-2.2-6.5-5.8-6.5-10.8
				c0-2.3,0.4-4.3,1.1-5.9c0.7-1.6,1.6-3,2.5-4c2.3,0.7,4.6,1.3,6.9,1.8c2.3,0.5,4.8,0.8,7.5,0.8c11.1,0,16.6-5.7,16.6-17.2v-86.8
				c1.2-0.3,3-0.6,5.3-1c2.3-0.4,4.6-0.6,6.9-0.6c4.9,0,8.4,0.9,10.7,2.6c2.3,1.8,3.4,5,3.4,9.7v78.9
				C361,528.9,357.6,537.9,350.9,543.8z"/>
			<path class="st4" d="M387.9,425.5c0-3.9,1.4-7.3,4.1-10c2.8-2.8,6.3-4.2,10.6-4.2c4.3,0,7.8,1.4,10.5,4.2c2.7,2.8,4,6.1,4,10
				c0,4-1.4,7.5-4,10.2c-2.7,2.8-6.2,4.1-10.5,4.1c-4.3,0-7.9-1.4-10.6-4.1C389.3,432.9,387.9,429.5,387.9,425.5z M389.9,454.8
				c1.1-0.3,2.7-0.6,4.8-1c2.1-0.4,4.4-0.6,6.8-0.6c4.9,0,8.4,0.9,10.6,2.6c2.2,1.8,3.3,4.9,3.3,9.3v84.6c-1.1,0.3-2.7,0.6-4.8,1
				c-2.1,0.4-4.4,0.6-6.8,0.6c-4.9,0-8.4-0.9-10.6-2.6c-2.2-1.8-3.3-4.9-3.3-9.3V454.8z"/>
			<path class="st4" d="M584.7,549.7c-1.1,0.3-2.7,0.6-4.8,1c-2.1,0.4-4.4,0.6-6.8,0.6c-4.9,0-8.4-0.9-10.6-2.6
				c-2.2-1.8-3.3-4.9-3.3-9.3v-52.6c0-5.4-1.5-9.3-4.5-11.7c-3-2.4-6.9-3.6-11.7-3.6c-3.2,0-6.4,0.6-9.4,1.8c-3,1.2-5.7,2.8-8,4.9
				c0.4,1.9,0.6,3.8,0.6,5.7v66c-1.1,0.3-2.7,0.6-4.8,1c-2.1,0.4-4.4,0.6-6.8,0.6c-4.9,0-8.4-0.9-10.6-2.6c-2.2-1.8-3.3-4.9-3.3-9.3
				v-52.6c0-5.4-1.6-9.3-4.7-11.7c-3.1-2.4-7.1-3.6-11.9-3.6c-3.4,0-6.5,0.5-9.3,1.6c-2.8,1.1-5.2,2.2-7.1,3.2v73.5
				c-1.2,0.3-2.8,0.6-4.9,1c-2,0.4-4.3,0.6-6.9,0.6c-4.7,0-8.2-0.9-10.5-2.6c-2.3-1.8-3.4-4.9-3.4-9.3v-65c0-3.1,0.7-5.7,2-7.8
				c1.3-2.1,3.4-4.1,6.3-6c4-2.7,9.2-5,15.4-6.8c6.2-1.8,12.6-2.7,19.2-2.7c12.3,0,22.3,3.3,30,9.9c3.9-2.8,8.4-5.2,13.5-7.1
				c5.1-1.9,11-2.8,17.9-2.8c5.3,0,10.3,0.6,15,1.9c4.7,1.3,8.8,3.3,12.2,6.2c3.4,2.8,6.2,6.4,8.2,10.8c2,4.4,3,9.6,3,15.7V549.7z"
				/>
			<path class="st4" d="M753.1,549.7c-1.1,0.3-2.7,0.6-4.8,1c-2.1,0.4-4.4,0.6-6.8,0.6c-4.9,0-8.4-0.9-10.6-2.6
				c-2.2-1.8-3.3-4.9-3.3-9.3v-52.6c0-5.4-1.5-9.3-4.5-11.7c-3-2.4-6.9-3.6-11.7-3.6c-3.2,0-6.4,0.6-9.4,1.8c-3,1.2-5.7,2.8-8,4.9
				c0.4,1.9,0.6,3.8,0.6,5.7v66c-1.1,0.3-2.7,0.6-4.8,1c-2.1,0.4-4.4,0.6-6.8,0.6c-4.9,0-8.4-0.9-10.6-2.6c-2.2-1.8-3.3-4.9-3.3-9.3
				v-52.6c0-5.4-1.6-9.3-4.7-11.7c-3.1-2.4-7.1-3.6-11.9-3.6c-3.4,0-6.5,0.5-9.3,1.6c-2.8,1.1-5.2,2.2-7.1,3.2v73.5
				c-1.2,0.3-2.8,0.6-4.9,1c-2,0.4-4.3,0.6-6.9,0.6c-4.7,0-8.2-0.9-10.5-2.6c-2.3-1.8-3.4-4.9-3.4-9.3v-65c0-3.1,0.7-5.7,2-7.8
				c1.3-2.1,3.4-4.1,6.3-6c4-2.7,9.2-5,15.4-6.8c6.2-1.8,12.6-2.7,19.2-2.7c12.3,0,22.3,3.3,30,9.9c3.9-2.8,8.4-5.2,13.5-7.1
				c5.1-1.9,11-2.8,17.9-2.8c5.3,0,10.3,0.6,15,1.9c4.7,1.3,8.8,3.3,12.2,6.2c3.4,2.8,6.2,6.4,8.2,10.8c2,4.4,3,9.6,3,15.7V549.7z"
				/>
			<path class="st4" d="M792.9,526.9c-3.2-6.7-7.1-15.9-11.5-27.3c-4.5-11.5-8.9-25.4-13.4-41.7c1.3-1.6,3.2-3,5.7-4.1
				c2.4-1.1,5.1-1.7,7.9-1.7c3.5,0,6.4,0.8,8.6,2.4c2.2,1.6,4,4.5,5.4,8.7c6.3,20.4,13.6,41,21.7,61.9h0.8c1.8-4.5,3.6-9.5,5.6-15.2
				c2-5.7,3.8-11.6,5.7-17.8s3.5-12.5,5.2-18.8c1.6-6.3,3-12.5,4.3-18.4c1.6-0.8,3.3-1.5,5.2-2c1.8-0.5,3.7-0.8,5.8-0.8
				c3.5,0,6.5,0.8,9.1,2.4c2.6,1.6,3.8,4.2,3.8,7.9c0,4-0.9,9.7-2.6,17.1c-1.8,7.4-4.1,15.3-7,23.7c-2.9,8.4-6.2,16.9-9.8,25.5
				c-3.6,8.6-7.3,16.1-10.9,22.6c-7,12.4-13.4,21.7-19.1,27.8c-5.7,6.1-11.4,9.2-16.9,9.2c-4.3,0-7.8-1.2-10.4-3.7
				c-2.6-2.5-4.3-5.6-5-9.4c2.2-1.9,4.5-4.1,6.9-6.6c2.4-2.5,4.9-5.2,7.3-8c2.4-2.8,4.7-5.7,6.9-8.7c2.2-3,4-5.9,5.7-8.7
				c-1.2-0.4-2.4-0.9-3.5-1.5c-1.1-0.6-2.3-1.5-3.4-2.7c-1.1-1.2-2.4-2.8-3.6-4.7C795.6,532.3,794.3,529.8,792.9,526.9z"/>
			<path class="st4" d="M864.2,537.4c0-4.5,1.4-8.2,4.1-11.2c2.8-3,6.6-4.6,11.4-4.6c4.7,0,8.5,1.5,11.2,4.6c2.8,3,4.1,6.8,4.1,11.2
				c0,4.3-1.4,8-4.1,11c-2.8,3-6.5,4.6-11.2,4.6c-4.9,0-8.7-1.5-11.4-4.6C865.6,545.4,864.2,541.7,864.2,537.4z"/>
			<path class="st4" d="M950.4,531.5c7.8,0,13.6-1.5,17.2-4.6c3.6-3,5.5-6.8,5.5-11.4c0-4.2-1.4-7.5-4.3-10c-2.8-2.5-7.2-4.6-13-6.4
				l-13-4c-5.1-1.6-9.8-3.4-14-5.5c-4.2-2-7.8-4.4-10.7-7.2c-3-2.8-5.3-6-6.9-9.7c-1.6-3.7-2.4-8.1-2.4-13.3
				c0-10.9,4.1-19.6,12.3-26c8.2-6.4,19.5-9.6,33.8-9.6c5.7,0,10.9,0.4,15.7,1.3c4.8,0.9,8.9,2.1,12.4,3.6c3.5,1.6,6.2,3.5,8.2,5.8
				c2,2.3,2.9,4.9,2.9,7.7c0,2.7-0.6,5-1.9,7c-1.3,2-2.9,3.5-4.8,4.8c-3.2-2.3-7.5-4.3-12.9-6c-5.3-1.7-11.2-2.5-17.5-2.5
				c-7,0-12.3,1.2-16,3.7c-3.6,2.5-5.5,5.9-5.5,10.2c0,3.5,1.2,6.2,3.7,8.1c2.5,1.9,6.4,3.7,11.8,5.5l11.5,3.6
				c11.7,3.5,20.8,8.3,27.3,14.4c6.5,6.1,9.7,14.3,9.7,24.7c0,5.5-1.1,10.6-3.2,15.2c-2.2,4.6-5.3,8.5-9.4,11.8
				c-4.1,3.3-9.2,5.9-15.4,7.7c-6.1,1.8-13.1,2.7-20.9,2.7c-6.2,0-11.9-0.5-17.1-1.6c-5.2-1.1-9.7-2.5-13.5-4.4
				c-3.8-1.8-6.7-4-8.8-6.5c-2.1-2.5-3.1-5.2-3.1-8.2c0-3.1,0.9-5.8,2.7-8s3.9-3.9,6.4-5c3.4,3,7.8,5.7,13.4,8.2
				C936.5,530.3,943,531.5,950.4,531.5z"/>
		</g>
	</g>
	<g>
		<path class="st5" d="M569-304v-0.2c0-21.6-8.5-41.1-22.6-55.3c-7.9-8-17.4-14.3-28.1-18.3c-8.6-3.2-17.9-5-27.6-5
			c-1.7,0-3.3,0.1-5,0.2c-10.9,35-38.4,62.7-73.4,73.6c-9.3,2.9-19,4-29.2,5H379c0-12,1.8-22.8,5-33.3c39.4-2.5,70.9-34,73.4-73.5
			c10.5-3.3,21.7-5.1,33.3-5.1c20.3,0,39.4,5.4,55.9,14.9c10.6,6.1,20.1,14.1,28.2,23.2C592-358,602.5-332,602.5-304H569z"/>
		<g>
			<path class="st4" d="M679.9-311.1c-5.8,5-13.4,7.6-22.9,7.6c-6.4,0-11.4-1-15.1-2.9c-3.7-1.9-5.6-5-5.6-9.3c0-2,0.3-3.6,1-5
				c0.6-1.4,1.4-2.5,2.2-3.5c2,0.6,3.9,1.1,5.9,1.6c2,0.5,4.1,0.7,6.4,0.7c9.5,0,14.2-4.9,14.2-14.8v-74.5c1-0.2,2.5-0.5,4.5-0.9
				c2-0.3,3.9-0.5,5.9-0.5c4.2,0,7.2,0.8,9.2,2.3c2,1.5,3,4.3,3,8.3v67.7C688.6-323.9,685.7-316.1,679.9-311.1z"/>
			<path class="st4" d="M711.7-412.6c0-3.4,1.2-6.2,3.6-8.6c2.4-2.4,5.4-3.6,9.1-3.6c3.7,0,6.7,1.2,9,3.6c2.3,2.4,3.5,5.2,3.5,8.6
				c0,3.5-1.2,6.4-3.5,8.8c-2.3,2.4-5.3,3.6-9,3.6c-3.7,0-6.7-1.2-9.1-3.6C712.9-406.2,711.7-409.1,711.7-412.6z M713.4-387.4
				c0.9-0.2,2.3-0.5,4.1-0.9c1.8-0.3,3.7-0.5,5.8-0.5c4.2,0,7.2,0.8,9.1,2.3c1.9,1.5,2.9,4.2,2.9,8v72.6c-0.9,0.2-2.3,0.5-4.1,0.9
				c-1.8,0.3-3.7,0.5-5.8,0.5c-4.2,0-7.2-0.8-9.1-2.3c-1.9-1.5-2.9-4.2-2.9-8V-387.4z"/>
			<path class="st4" d="M880.4-306c-0.9,0.2-2.3,0.5-4.1,0.9c-1.8,0.3-3.7,0.5-5.8,0.5c-4.2,0-7.2-0.8-9.1-2.3
				c-1.9-1.5-2.9-4.2-2.9-8V-360c0-4.6-1.3-8-3.8-10.1c-2.5-2.1-5.9-3.1-10.1-3.1c-2.8,0-5.5,0.5-8.1,1.6c-2.6,1-4.9,2.4-6.9,4.2
				c0.3,1.6,0.5,3.2,0.5,4.9v56.6c-0.9,0.2-2.3,0.5-4.1,0.9c-1.8,0.3-3.7,0.5-5.8,0.5c-4.2,0-7.2-0.8-9.1-2.3
				c-1.9-1.5-2.9-4.2-2.9-8V-360c0-4.6-1.3-8-4-10.1c-2.7-2.1-6.1-3.1-10.2-3.1c-2.9,0-5.6,0.5-8,1.4c-2.4,0.9-4.5,1.9-6.1,2.8v63
				c-1,0.2-2.4,0.5-4.2,0.9s-3.7,0.5-5.9,0.5c-4.1,0-7.1-0.8-9-2.3c-2-1.5-3-4.2-3-8v-55.7c0-2.7,0.6-4.9,1.7-6.7
				c1.2-1.8,3-3.5,5.4-5.1c3.5-2.3,7.9-4.3,13.2-5.8c5.3-1.6,10.8-2.3,16.5-2.3c10.5,0,19.1,2.8,25.7,8.5c3.4-2.4,7.2-4.5,11.5-6.1
				s9.5-2.4,15.4-2.4c4.5,0,8.8,0.6,12.8,1.6c4.1,1.1,7.6,2.9,10.5,5.3c3,2.4,5.3,5.5,7,9.3c1.7,3.8,2.6,8.2,2.6,13.5V-306z"/>
			<path class="st4" d="M1024.8-306c-0.9,0.2-2.3,0.5-4.1,0.9c-1.8,0.3-3.7,0.5-5.8,0.5c-4.2,0-7.2-0.8-9.1-2.3
				c-1.9-1.5-2.9-4.2-2.9-8V-360c0-4.6-1.3-8-3.8-10.1c-2.5-2.1-5.9-3.1-10.1-3.1c-2.8,0-5.5,0.5-8.1,1.6c-2.6,1-4.9,2.4-6.9,4.2
				c0.3,1.6,0.5,3.2,0.5,4.9v56.6c-0.9,0.2-2.3,0.5-4.1,0.9c-1.8,0.3-3.7,0.5-5.8,0.5c-4.2,0-7.2-0.8-9.1-2.3
				c-1.9-1.5-2.9-4.2-2.9-8V-360c0-4.6-1.3-8-4-10.1c-2.7-2.1-6.1-3.1-10.2-3.1c-2.9,0-5.6,0.5-8,1.4c-2.4,0.9-4.5,1.9-6.1,2.8v63
				c-1,0.2-2.4,0.5-4.2,0.9s-3.7,0.5-5.9,0.5c-4.1,0-7.1-0.8-9-2.3c-2-1.5-3-4.2-3-8v-55.7c0-2.7,0.6-4.9,1.7-6.7
				c1.2-1.8,3-3.5,5.4-5.1c3.5-2.3,7.9-4.3,13.2-5.8c5.3-1.6,10.8-2.3,16.5-2.3c10.5,0,19.1,2.8,25.7,8.5c3.4-2.4,7.2-4.5,11.5-6.1
				c4.3-1.6,9.5-2.4,15.4-2.4c4.5,0,8.8,0.6,12.8,1.6c4.1,1.1,7.6,2.9,10.5,5.3c3,2.4,5.3,5.5,7,9.3c1.7,3.8,2.6,8.2,2.6,13.5V-306z
				"/>
			<path class="st4" d="M1059-325.6c-2.8-5.8-6.1-13.6-9.9-23.4c-3.8-9.8-7.6-21.8-11.5-35.8c1.2-1.4,2.8-2.6,4.9-3.6
				c2.1-1,4.3-1.5,6.8-1.5c3,0,5.5,0.7,7.4,2.1c1.9,1.4,3.4,3.9,4.6,7.5c5.4,17.5,11.6,35.2,18.6,53.1h0.7c1.5-3.8,3.1-8.2,4.8-13
				c1.7-4.9,3.3-10,4.9-15.3c1.6-5.3,3-10.7,4.4-16.1c1.4-5.4,2.6-10.7,3.6-15.8c1.4-0.7,2.9-1.3,4.4-1.7c1.6-0.5,3.2-0.7,4.9-0.7
				c3,0,5.6,0.7,7.8,2.1c2.2,1.4,3.3,3.6,3.3,6.8c0,3.5-0.8,8.4-2.3,14.7c-1.5,6.3-3.5,13.1-6,20.3c-2.5,7.2-5.3,14.5-8.4,21.9
				c-3.1,7.3-6.2,13.8-9.4,19.4c-6,10.6-11.5,18.6-16.4,23.9c-4.9,5.3-9.7,7.9-14.5,7.9c-3.7,0-6.7-1.1-8.9-3.2s-3.7-4.8-4.3-8.1
				c1.8-1.6,3.8-3.5,5.9-5.6c2.1-2.1,4.2-4.4,6.2-6.9c2.1-2.4,4-4.9,5.9-7.5c1.9-2.5,3.5-5,4.9-7.5c-1-0.3-2.1-0.8-3-1.3
				c-1-0.5-2-1.3-3-2.3c-1-1-2-2.4-3.1-4C1061.3-321,1060.2-323,1059-325.6z"/>
			<path class="st4" d="M1120.1-316.6c0-3.8,1.2-7,3.6-9.6c2.4-2.6,5.6-3.9,9.8-3.9c4,0,7.3,1.3,9.6,3.9c2.4,2.6,3.6,5.8,3.6,9.6
				c0,3.7-1.2,6.9-3.6,9.5c-2.4,2.6-5.6,3.9-9.6,3.9c-4.2,0-7.4-1.3-9.8-3.9C1121.3-309.7,1120.1-312.9,1120.1-316.6z"/>
			<path class="st4" d="M1194.1-321.6c6.7,0,11.6-1.3,14.8-3.9c3.1-2.6,4.7-5.9,4.7-9.8c0-3.6-1.2-6.4-3.6-8.6
				c-2.4-2.1-6.1-4-11.1-5.5l-11.1-3.5c-4.4-1.4-8.4-2.9-12-4.7c-3.6-1.7-6.7-3.8-9.2-6.2c-2.5-2.4-4.5-5.1-5.9-8.3
				c-1.4-3.2-2.1-7-2.1-11.4c0-9.4,3.5-16.8,10.6-22.3c7.1-5.5,16.7-8.2,29-8.2c4.9,0,9.3,0.4,13.5,1.1c4.1,0.8,7.7,1.8,10.7,3.1
				c3,1.3,5.4,3,7,4.9c1.7,2,2.5,4.2,2.5,6.6c0,2.3-0.6,4.3-1.6,6c-1.1,1.7-2.5,3-4.1,4.1c-2.8-2-6.5-3.7-11-5.1
				c-4.6-1.4-9.6-2.2-15-2.2c-6,0-10.6,1.1-13.7,3.2c-3.1,2.1-4.7,5.1-4.7,8.8c0,3,1.1,5.3,3.2,6.9c2.1,1.6,5.5,3.2,10.2,4.7
				l9.9,3.1c10.1,3,17.9,7.1,23.4,12.3s8.3,12.3,8.3,21.2c0,4.7-0.9,9.1-2.8,13c-1.9,3.9-4.5,7.3-8.1,10.2c-3.5,2.8-7.9,5-13.2,6.6
				c-5.3,1.6-11.3,2.3-18,2.3c-5.3,0-10.2-0.5-14.7-1.4c-4.5-0.9-8.3-2.2-11.5-3.7c-3.2-1.6-5.8-3.4-7.6-5.6c-1.8-2.1-2.7-4.5-2.7-7
				c0-2.7,0.8-4.9,2.3-6.9c1.6-1.9,3.4-3.3,5.5-4.3c2.9,2.5,6.7,4.9,11.5,7C1182.1-322.7,1187.7-321.6,1194.1-321.6z"/>
		</g>
	</g>
</g>
</svg>
